<?xml version="1.0" encoding="UTF-8" standalone="no"?>
<!DOCTYPE svg PUBLIC "-//W3C//DTD SVG 1.1//EN"
 "http://www.w3.org/Graphics/SVG/1.1/DTD/svg11.dtd">
<!-- Generated by graphviz version 2.36.0 (20140111.2315)
 -->
<!-- Title: G Pages: 1 -->
<svg width="456pt" height="116pt"
 viewBox="0.00 0.00 456.00 116.00" xmlns="http://www.w3.org/2000/svg" xmlns:xlink="http://www.w3.org/1999/xlink">
<g id="graph0" class="graph" transform="scale(1 1) rotate(0) translate(4 112)">
<title>G</title>
<polygon fill="white" stroke="none" points="-4,4 -4,-112 452,-112 452,4 -4,4"/>
<!-- BLOCK_A1 -->
<g id="node1" class="node"><title>BLOCK_A1</title>
<polygon fill="white" stroke="purple" stroke-width="2" points="448,-108 362,-108 362,-72 448,-72 448,-108"/>
<text text-anchor="middle" x="405" y="-86.3" font-family="Times,serif" font-size="14.00">BLOCK_A1</text>
</g>
<!-- BLOCK_BRANCH -->
<g id="node3" class="node"><title>BLOCK_BRANCH</title>
<polygon fill="white" stroke="purple" stroke-width="2" points="125.5,-79 0.5,-79 0.5,-43 125.5,-43 125.5,-79"/>
<text text-anchor="middle" x="63" y="-57.3" font-family="Times,serif" font-size="14.00">BLOCK_BRANCH</text>
</g>
<!-- BLOCK_A1&#45;&gt;BLOCK_BRANCH -->
<g id="edge4" class="edge"><title>BLOCK_A1&#45;&gt;BLOCK_BRANCH</title>
<path fill="none" stroke="red" d="M361.8,-93.21C340.319,-94.6868 313.784,-96.2705 290,-97 249.13,-98.2536 238.537,-102.35 198,-97 174.805,-93.9385 149.922,-88.0182 127.971,-81.849"/>
<polygon fill="red" stroke="red" points="128.686,-78.4128 118.108,-79.0063 126.747,-85.139 128.686,-78.4128"/>
</g>
<!-- BLOCK_B1 -->
<g id="node2" class="node"><title>BLOCK_B1</title>
<polygon fill="white" stroke="purple" stroke-width="2" points="447.5,-50 362.5,-50 362.5,-14 447.5,-14 447.5,-50"/>
<text text-anchor="middle" x="405" y="-28.3" font-family="Times,serif" font-size="14.00">BLOCK_B1</text>
</g>
<!-- BLOCK_B1&#45;&gt;BLOCK_BRANCH -->
<g id="edge3" class="edge"><title>BLOCK_B1&#45;&gt;BLOCK_BRANCH</title>
<path fill="none" stroke="red" d="M362.179,-35.5671C305.803,-40.3756 204.59,-49.0085 135.885,-54.8686"/>
<polygon fill="red" stroke="red" points="135.238,-51.411 125.571,-55.7483 135.833,-58.3857 135.238,-51.411"/>
</g>
<!-- MSG_A0 -->
<g id="0x1fd0001000200200" class="node"><title>MSG_A0</title>
<ellipse fill="white" stroke="#cd6600" stroke-width="2" cx="244" cy="-76" rx="45.4919" ry="18"/>
<text text-anchor="middle" x="244" y="-72.3" font-family="Times,serif" font-size="14.00">MSG_A0</text>
</g>
<!-- BLOCK_BRANCH&#45;&gt;MSG_A0 -->
<g id="edge5" class="edge"><title>BLOCK_BRANCH&#45;&gt;MSG_A0</title>
<path fill="none" stroke="red" d="M125.602,-66.1621C146.27,-67.8941 169.144,-69.8109 189.169,-71.489"/>
<polygon fill="red" stroke="red" points="189.097,-74.9952 199.355,-72.3426 189.682,-68.0197 189.097,-74.9952"/>
</g>
<!-- MSG_B0 -->
<g id="0x1fd0002000200200" class="node"><title>MSG_B0</title>
<ellipse fill="white" stroke="#cd6600" stroke-width="2" cx="244" cy="-18" rx="44.6926" ry="18"/>
<text text-anchor="middle" x="244" y="-14.3" font-family="Times,serif" font-size="14.00">MSG_B0</text>
</g>
<!-- BLOCK_BRANCH&#45;&gt;MSG_B0 -->
<g id="edge6" class="edge"><title>BLOCK_BRANCH&#45;&gt;MSG_B0</title>
<path fill="none" stroke="black" d="M125.602,-46.2018C148.388,-40.7281 173.855,-34.6104 195.23,-29.4755"/>
<polygon fill="black" stroke="black" points="196.145,-32.8554 205.051,-27.1163 194.51,-26.049 196.145,-32.8554"/>
</g>
<!-- MSG_A0&#45;&gt;BLOCK_A1 -->
<g id="edge2" class="edge"><title>MSG_A0&#45;&gt;BLOCK_A1</title>
<path fill="none" stroke="red" d="M288.868,-79.8626C308.37,-81.5797 331.478,-83.6144 351.855,-85.4086"/>
<polygon fill="red" stroke="red" points="351.651,-88.9041 361.919,-86.2948 352.265,-81.931 351.651,-88.9041"/>
</g>
<!-- MSG_B0&#45;&gt;BLOCK_B1 -->
<g id="edge1" class="edge"><title>MSG_B0&#45;&gt;BLOCK_B1</title>
<path fill="none" stroke="red" d="M288.028,-21.7886C307.776,-23.5274 331.357,-25.6038 352.083,-27.4287"/>
<polygon fill="red" stroke="red" points="352.043,-30.9386 362.311,-28.3293 352.657,-23.9656 352.043,-30.9386"/>
</g>
</g>
</svg>
