<?xml version="1.0" encoding="UTF-8" standalone="no"?>
<!-- Generated by graphviz version 2.36.0 (20140111.2315)
 -->

<!-- Title: G Pages: 1 -->

<svg
   xmlns:dc="http://purl.org/dc/elements/1.1/"
   xmlns:cc="http://creativecommons.org/ns#"
   xmlns:rdf="http://www.w3.org/1999/02/22-rdf-syntax-ns#"
   xmlns:svg="http://www.w3.org/2000/svg"
   xmlns="http://www.w3.org/2000/svg"
   xmlns:sodipodi="http://sodipodi.sourceforge.net/DTD/sodipodi-0.dtd"
   xmlns:inkscape="http://www.inkscape.org/namespaces/inkscape"
   width="1243.7292"
   height="148.86784"
   viewBox="0 0 994.9834 119.09427"
   id="svg3226"
   version="1.1"
   inkscape:version="0.48.4 r9939"
   sodipodi:docname="download.svg">
  <metadata
     id="metadata3363">
    <rdf:RDF>
      <cc:Work
         rdf:about="">
        <dc:format>image/svg+xml</dc:format>
        <dc:type
           rdf:resource="http://purl.org/dc/dcmitype/StillImage" />
        <dc:title></dc:title>
      </cc:Work>
    </rdf:RDF>
  </metadata>
  <defs
     id="defs3361" />
  <sodipodi:namedview
     pagecolor="#ffffff"
     bordercolor="#666666"
     borderopacity="1"
     objecttolerance="10"
     gridtolerance="10"
     guidetolerance="10"
     inkscape:pageopacity="0"
     inkscape:pageshadow="2"
     inkscape:window-width="2495"
     inkscape:window-height="1416"
     id="namedview3359"
     showgrid="false"
     fit-margin-top="0"
     fit-margin-left="0"
     fit-margin-right="0"
     fit-margin-bottom="0"
     inkscape:zoom="0.5415343"
     inkscape:cx="917.48449"
     inkscape:cy="877.69993"
     inkscape:window-x="1665"
     inkscape:window-y="24"
     inkscape:window-maximized="1"
     inkscape:current-layer="svg3226" />
  <g
     class="node"
     id="node1"
     transform="translate(90.431221,212.59427)">
    <title
       id="title3234">BLOCK_LIN2</title>
    <polygon
       style="fill:#ffffff;stroke:#000000"
       id="polygon3236"
       points="714,-130 714,-130 616,-130 616,-94 714,-94 " />
    <text
       style="font-size:14px;text-anchor:middle;font-family:'Times,serif'"
       id="text3238"
       font-size="14.00"
       y="-108.3"
       x="665">BLOCK_LIN2</text>
  </g>
  <g
     class="node"
     id="node2"
     transform="translate(-84.016577,327.5)">
    <title
       id="title3241">BLOCK_LOUT2</title>
    <polygon
       style="fill:#ffffff;stroke:#800080;stroke-width:2"
       id="polygon3243"
       points="1078,-269 1078,-269 966,-269 966,-233 1078,-233 " />
    <text
       style="font-size:14px;text-anchor:middle;font-family:'Times,serif'"
       id="text3245"
       font-size="14.00"
       y="-247.3"
       x="1022">BLOCK_LOUT2</text>
  </g>
  <path
     d="m 805.41848,101.30094 c 34.27498,-0.0131 45.03584,-15.855925 68.12668,-14.349141"
     id="path3250"
     inkscape:connector-curvature="0"
     style="fill:none;stroke:#ff0000;stroke-width:1"
     sodipodi:nodetypes="cc" />
  <polygon
     points="993.898,-223.817 989.53,-229.288 989.53,-229.288 999.529,-232.792 "
     id="polygon3252"
     style="fill:#ff0000;stroke:#ff0000"
     transform="matrix(0.7575426,0.65278573,-0.65278573,0.7575426,-28.851559,-388.88706)" />
  <g
     class="node"
     id="0x1fd0002000000000"
     transform="translate(-236.00552,115.44669)">
    <title
       id="title3255">MSG_LIN1</title>
    <ellipse
       style="fill:#ffffff;stroke:#000000"
       sodipodi:ry="18"
       sodipodi:rx="53.890499"
       sodipodi:cy="-18"
       sodipodi:cx="840"
       d="m 893.8905,-18 c 0,9.9411255 -24.1276,18 -53.8905,18 -29.7629,0 -53.8905,-8.0588745 -53.8905,-18 0,-9.941125 24.1276,-18 53.8905,-18 29.7629,0 53.8905,8.058875 53.8905,18 z"
       id="ellipse3257"
       ry="18"
       rx="53.890499"
       cy="-18"
       cx="840" />
    <text
       style="font-size:14px;text-anchor:middle;font-family:'Times,serif'"
       id="text3259"
       font-size="14.00"
       y="-14.3"
       x="840">MSG_LIN1</text>
  </g>
  <path
     sodipodi:nodetypes="cc"
     d="m 706.32874,112.19522 c -28.70409,5.20154 -32.6573,5.47883 -55.1034,0.15032"
     id="path3264"
     inkscape:connector-curvature="0"
     style="fill:none;stroke:#000000;stroke-width:1" />
  <polygon
     points="784.17,-29.1462 787.115,-35.4967 787.115,-35.4967 794.715,-28.1145 "
     id="polygon3266"
     style="fill:#000000;stroke:#000000"
     transform="matrix(-0.99989154,-0.01472769,0.01472769,-0.99989154,1440.6274,92.918822)" />
  <g
     class="node"
     id="node4"
     transform="translate(0.595828,327.5)">
    <title
       id="title3269">CMD_LOUT0</title>
    <polygon
       style="fill:#ffffff;stroke:#cd6600;stroke-width:2"
       id="polygon3271"
       points="110.798,-271 37.2021,-271 0.404172,-253 37.2021,-235 110.798,-235 147.596,-253 147.596,-253 " />
    <text
       style="font-size:14px;text-anchor:middle;font-family:'Times,serif'"
       id="text3273"
       font-size="14.00"
       y="-249.3"
       x="74">CMD_LOUT0</text>
  </g>
  <g
     class="edge"
     id="edge9"
     transform="translate(0.595828,327.5)">
    <title
       id="title3276">BLOCK_LOUT2-&gt;CMD_LOUT0</title>
    <path
       style="fill:none;stroke:#ff0000"
       inkscape:connector-curvature="0"
       id="path3278"
       d="M 912.84579,-269.131 C 854.69979,-294.041 790.682,-327 666,-327 c -186,0 -186,0 -186,0 -135.072,0 -293.435,28.806 -365.593,52.609"
       sodipodi:nodetypes="cscc" />
    <polygon
       style="fill:#ff0000;stroke:#ff0000"
       id="polygon3280"
       points="115.403,-271.032 104.808,-271.069 113.114,-277.647 115.403,-271.032 " />
  </g>
  <g
     class="node"
     id="0x1fd0001000000000"
     transform="translate(13.152743,270.62456)">
    <title
       id="title3283">MSG_LOUT1</title>
    <ellipse
       style="fill:#ffffff;stroke:#000000"
       sodipodi:ry="18"
       sodipodi:rx="62.289101"
       sodipodi:cy="-199"
       sodipodi:cx="283"
       d="m 345.2891,-199 c 0,9.94113 -27.88778,18 -62.2891,18 -34.40132,0 -62.2891,-8.05887 -62.2891,-18 0,-9.94113 27.88778,-18 62.2891,-18 34.40132,0 62.2891,8.05887 62.2891,18 z"
       id="ellipse3285"
       ry="18"
       rx="62.289101"
       cy="-199"
       cx="283" />
    <text
       style="font-size:14px;text-anchor:middle;font-family:'Times,serif'"
       id="text3287"
       font-size="14.00"
       y="-195.3"
       x="283">MSG_LOUT1</text>
  </g>
  <path
     sodipodi:nodetypes="cc"
     d="M 882.58888,73.080813 C 731.68851,39.557573 506.54565,26.407131 358.65446,57.324926"
     id="path3292"
     inkscape:connector-curvature="0"
     style="fill:none;stroke:#000000;stroke-width:1" />
  <polygon
     points="343.688,-203.211 353.416,-207.407 353.909,-200.424 353.909,-200.424 "
     id="polygon3294"
     style="fill:#000000;stroke:#000000"
     transform="matrix(0.9681891,-0.25021963,0.25021963,0.9681891,67.415774,343.52445)" />
  <g
     class="node"
     id="node3"
     transform="translate(-28.211212,159.08961)">
    <title
       id="title3297">CMD_LIN0</title>
    <polygon
       style="fill:#ffffff;stroke:#000000"
       id="polygon3299"
       points="449.459,-78 417.918,-60 449.459,-42 512.541,-42 544.082,-60 544.082,-60 512.541,-78 " />
    <text
       style="font-size:14px;text-anchor:middle;font-family:'Times,serif'"
       id="text3301"
       font-size="14.00"
       y="-56.299999"
       x="481">CMD_LIN0</text>
  </g>
  <path
     d="m 497.71259,86.867588 c 42.67646,-27.339653 151.65098,-26.316576 198.24333,-0.0086"
     id="path3306"
     inkscape:connector-curvature="0"
     style="fill:none;stroke:#0000ff;stroke-width:1"
     sodipodi:nodetypes="cc" />
  <polygon
     points="615.68,-98.1943 607.026,-92.0817 605.103,-98.8123 605.103,-98.8123 "
     id="polygon3308"
     style="fill:#0000ff;stroke:#0000ff"
     transform="matrix(0.75385263,0.65704354,-0.65704354,0.75385263,176.39775,-239.11309)" />
  <path
     d="m 497.94592,109.57175 c 20.53131,4.72759 39.72166,3.53943 59.13006,-0.76983"
     id="path3320"
     inkscape:connector-curvature="0"
     style="fill:none;stroke:#ffc0cb;stroke-width:1"
     sodipodi:nodetypes="cc" />
  <polygon
     points="795.21,-30.846 796.785,-37.6667 796.785,-37.6667 805.741,-32.0069 "
     id="polygon3322"
     style="fill:#ffc0cb;stroke:#ffc0cb"
     transform="matrix(0.89171467,-0.452598,0.452598,0.89171467,-145.57494,501.61643)"
     inkscape:transform-center-x="-2.1185402"
     inkscape:transform-center-y="1.4604163" />
  <path
     sodipodi:nodetypes="cc"
     d="m 130.32612,63.739578 c 286.60496,-68.5851877 497.80367,-69.6049485 743.3775,-2.1311"
     id="path3327"
     inkscape:connector-curvature="0"
     style="fill:none;stroke:#0000ff;stroke-width:1" />
  <polygon
     points="956.347,-254.921 965.749,-250.038 955.354,-247.992 956.347,-254.921 "
     id="polygon3329"
     style="fill:#0000ff;stroke:#0000ff"
     transform="translate(-84.755219,314.20444)" />
  <path
     sodipodi:nodetypes="cc"
     d="m 133.21231,83.458768 c 27.463,11.512 65.66686,12.234128 94.49793,0.223628"
     id="path3334"
     inkscape:connector-curvature="0"
     style="fill:none;stroke:#ff0000;stroke-width:1" />
  <polygon
     points="210.033,-199.112 211.46,-205.965 211.46,-205.965 220.537,-200.5 "
     id="polygon3336"
     style="fill:#ff0000;stroke:#ff0000"
     transform="matrix(0.82117084,-0.57068244,0.57068244,0.82117084,169.82689,370.00534)" />
  <path
     sodipodi:nodetypes="cc"
     d="m 143.68768,70.962708 c 23.80413,-14.44655 51.62891,-17.50221 79.98091,-6.08221"
     id="path3341"
     inkscape:connector-curvature="0"
     style="fill:none;stroke:#ffc0cb;stroke-width:1" />
  <polygon
     points="251.294,-222.921 251.294,-222.921 259.128,-215.788 248.556,-216.479 "
     id="polygon3343"
     style="fill:#ffc0cb;stroke:#ffc0cb"
     transform="translate(-26.30256,284.41035)" />
  <path
     sodipodi:nodetypes="cc"
     d="m 514.18529,98.995398 c 20.48808,0.8212 26.15697,1.013902 34.85993,0.58849"
     id="path3348"
     inkscape:connector-curvature="0"
     style="fill:none;stroke:#ff0000;stroke-width:1" />
  <polygon
     points="724.729,-99.693 721.748,-93.3592 721.748,-93.3592 714.19,-100.784 "
     id="polygon3350"
     style="fill:#ff0000;stroke:#ff0000"
     transform="matrix(-0.86469612,0.50229536,-0.50229536,-0.86469612,1116.5051,-346.40881)" />
  <path
     sodipodi:nodetypes="cc"
     d="m 351.07907,78.789218 c 12.51945,8.76604 24.0549,14.90967 31.36198,17.07396"
     id="path3355"
     inkscape:connector-curvature="0"
     style="fill:none;stroke:#ff0000;stroke-width:1" />
  <polygon
     points="444.229,-81.0772 448.279,-86.7871 448.279,-86.7871 454.411,-78.1473 "
     id="polygon3357"
     style="fill:#ff0000;stroke:#ff0000"
     transform="matrix(0.93883571,-0.34436535,0.34436535,0.93883571,-10.295205,326.9589)" />
  <path
     style="fill:none;stroke:#ff0000;stroke-width:1"
     inkscape:connector-curvature="0"
     id="path3454"
     d="m 658.22049,98.626078 c 20.48808,0.8212 29.48086,1.19856 38.18382,0.77315"
     sodipodi:nodetypes="cc" />
  <polygon
     transform="matrix(-0.92830939,0.37180867,-0.37180867,-0.92830939,1331.0124,-259.24486)"
     style="fill:#ff0000;stroke:#ff0000"
     id="polygon3456"
     points="714.19,-100.784 724.729,-99.693 721.748,-93.3592 721.748,-93.3592 " />
</svg>
