<?xml version="1.0" encoding="UTF-8" standalone="no"?>
<!-- Generated by graphviz version 2.36.0 (20140111.2315)
 -->

<!-- Title: G Pages: 1 -->

<svg
   xmlns:dc="http://purl.org/dc/elements/1.1/"
   xmlns:cc="http://creativecommons.org/ns#"
   xmlns:rdf="http://www.w3.org/1999/02/22-rdf-syntax-ns#"
   xmlns:svg="http://www.w3.org/2000/svg"
   xmlns="http://www.w3.org/2000/svg"
   xmlns:sodipodi="http://sodipodi.sourceforge.net/DTD/sodipodi-0.dtd"
   xmlns:inkscape="http://www.inkscape.org/namespaces/inkscape"
   width="1206.9598"
   height="155.99765"
   viewBox="0 0 965.56787 124.79812"
   id="svg3707"
   version="1.1"
   inkscape:version="0.48.4 r9939"
   sodipodi:docname="download.svg">
  <metadata
     id="metadata3823">
    <rdf:RDF>
      <cc:Work
         rdf:about="">
        <dc:format>image/svg+xml</dc:format>
        <dc:type
           rdf:resource="http://purl.org/dc/dcmitype/StillImage" />
        <dc:title></dc:title>
      </cc:Work>
    </rdf:RDF>
  </metadata>
  <defs
     id="defs3821" />
  <sodipodi:namedview
     pagecolor="#ffffff"
     bordercolor="#666666"
     borderopacity="1"
     objecttolerance="10"
     gridtolerance="10"
     guidetolerance="10"
     inkscape:pageopacity="0"
     inkscape:pageshadow="2"
     inkscape:window-width="2495"
     inkscape:window-height="1416"
     id="namedview3819"
     showgrid="false"
     fit-margin-top="0"
     fit-margin-left="0"
     fit-margin-right="0"
     fit-margin-bottom="0"
     inkscape:zoom="0.83004774"
     inkscape:cx="875.62165"
     inkscape:cy="160.34513"
     inkscape:window-x="1665"
     inkscape:window-y="24"
     inkscape:window-maximized="1"
     inkscape:current-layer="svg3707" />
  <g
     id="g3920"
     transform="translate(131.0679,-45.5)">
    <polygon
       transform="translate(4,148)"
       style="fill:#ffffff;stroke:#800080;stroke-width:2"
       id="polygon3717"
       points="86,-59 86,-59 0,-59 0,-23 86,-23 " />
    <text
       style="font-size:14px;text-anchor:middle;font-family:'Times,serif'"
       id="text3719"
       font-size="14.00"
       y="110.7"
       x="47">BLOCK_A1</text>
  </g>
  <polygon
     points="332.113,-83 288.557,-101 201.443,-101 157.887,-83 201.443,-65 288.557,-65 332.113,-83 "
     id="polygon3724"
     style="fill:#ffffff;stroke:#cd6600;stroke-width:2"
     transform="translate(135.0679,144.5)" />
  <text
     x="380.0679"
     y="65.199997"
     font-size="14.00"
     id="text3726"
     style="font-size:14px;text-anchor:middle;font-family:'Times,serif'">CMD_WAIT_TO</text>
  <g
     id="g3940"
     transform="matrix(0.97504945,0.22198778,-0.22198778,0.97504945,122.53564,-56.646086)">
    <path
       style="fill:none;stroke:#ff0000"
       inkscape:connector-curvature="0"
       id="path3731"
       d="M 122.36649,90.818538 C 148.63659,85.301838 150.997,85.3706 180.895,79.0921"
       sodipodi:nodetypes="cc" />
    <polygon
       transform="translate(4,148)"
       style="fill:#ff0000;stroke:#ff0000"
       id="polygon3733"
       points="186.847,-70.9979 177.78,-65.5173 176.341,-72.3679 176.341,-72.3679 " />
  </g>
  <g
     id="g3916"
     transform="translate(131.0679,40.798118)">
    <polygon
       transform="translate(4,148)"
       style="fill:#ffffff;stroke:#800080;stroke-width:2"
       id="polygon3738"
       points="829.5,-65 829.5,-101 829.5,-101 744.5,-101 744.5,-65 " />
    <text
       style="font-size:14px;text-anchor:middle;font-family:'Times,serif'"
       id="text3740"
       font-size="14.00"
       y="68.699997"
       x="791">BLOCK_B1</text>
  </g>
  <g
     id="g3932"
     transform="translate(-905.5081,-1.201882)">
    <ellipse
       transform="translate(4,148)"
       style="fill:#ffffff;stroke:#cd6600;stroke-width:2"
       sodipodi:ry="18"
       sodipodi:rx="45.491901"
       sodipodi:cy="-41"
       sodipodi:cx="948"
       d="m 993.4919,-41 c 0,9.941125 -20.36742,18 -45.4919,18 -25.12448,0 -45.4919,-8.058875 -45.4919,-18 0,-9.941125 20.36742,-18 45.4919,-18 25.12448,0 45.4919,8.058875 45.4919,18 z"
       id="ellipse3745"
       ry="18"
       rx="45.491901"
       cy="-41"
       cx="948" />
    <text
       style="font-size:14px;text-anchor:middle;font-family:'Times,serif'"
       id="text3747"
       font-size="14.00"
       y="110.7"
       x="952">MSG_A0</text>
  </g>
  <path
     sodipodi:nodetypes="cc"
     d="M 81.74936,92.340595 126.44621,70.747972"
     id="path3752"
     inkscape:connector-curvature="0"
     style="fill:none;stroke:#ff0000;stroke-width:1" />
  <polygon
     points="899.278,-49.9857 901.066,-56.7536 901.066,-56.7536 909.841,-50.8157 "
     id="polygon3754"
     style="fill:#ff0000;stroke:#ff0000"
     transform="matrix(0.80756521,-0.58977829,0.58977829,0.80756521,-571.44537,645.86406)" />
  <polygon
     points="404.5,-65 509.5,-65 509.5,-101 509.5,-101 404.5,-101 "
     id="polygon3759"
     style="fill:#ffffff;stroke:#800080;stroke-width:2"
     transform="translate(135.0679,144.5)" />
  <text
     x="592.06787"
     y="65.199997"
     font-size="14.00"
     id="text3761"
     style="font-size:14px;text-anchor:middle;font-family:'Times,serif'">BLOCK_WAIT</text>
  <path
     d="M 568.1619,43.391 C 552.2239,23.375 560.1929,0.5 592.0679,0.5 c 27.393,0 37.13,16.894 29.212,34.348"
     id="path3766"
     inkscape:connector-curvature="0"
     style="fill:none;stroke:#000000" />
  <polygon
     points="489.156,-107.758 489.156,-107.758 480.906,-101.109 483.209,-111.451 "
     id="polygon3768"
     style="fill:#000000;stroke:#000000"
     transform="translate(135.0679,144.5)" />
  <ellipse
     cx="627"
     cy="-83"
     rx="44.6926"
     ry="18"
     id="ellipse3773"
     d="m 671.6926,-83 c 0,9.941125 -20.00956,18 -44.6926,18 -24.68304,0 -44.6926,-8.058875 -44.6926,-18 0,-9.941125 20.00956,-18 44.6926,-18 24.68304,0 44.6926,8.058875 44.6926,18 z"
     sodipodi:cx="627"
     sodipodi:cy="-83"
     sodipodi:rx="44.6926"
     sodipodi:ry="18"
     style="fill:#ffffff;stroke:#cd6600;stroke-width:2"
     transform="translate(135.0679,144.5)" />
  <text
     x="762.06787"
     y="65.199997"
     font-size="14.00"
     id="text3775"
     style="font-size:14px;text-anchor:middle;font-family:'Times,serif'">MSG_B0</text>
  <path
     d="m 644.8439,61.5 c 19.704,0 42.197,0 62.111,0"
     id="path3780"
     inkscape:connector-curvature="0"
     style="fill:none;stroke:#ff0000" />
  <polygon
     points="572.038,-86.5001 572.038,-86.5001 582.038,-83 572.038,-79.5001 "
     id="polygon3782"
     style="fill:#ff0000;stroke:#ff0000"
     transform="translate(135.0679,144.5)" />
  <path
     d="m 396.8519,79.5284 c 36.105,17.5643 124.974,18.8591 168.859,3.8843"
     id="path3787"
     inkscape:connector-curvature="0"
     style="fill:none;stroke:#ff0000" />
  <polygon
     points="429.45,-64.3802 429.45,-64.3802 440.033,-64.8828 432.073,-57.8903 "
     id="polygon3789"
     style="fill:#ff0000;stroke:#ff0000"
     transform="translate(135.0679,144.5)" />
  <path
     d="m 467.3919,61.5 c 20.713,0 42.428,0 61.779,0"
     id="path3794"
     inkscape:connector-curvature="0"
     style="fill:none;stroke:#0000ff" />
  <polygon
     points="394.288,-86.5001 394.288,-86.5001 404.288,-83 394.288,-79.5001 "
     id="polygon3796"
     style="fill:#0000ff;stroke:#0000ff"
     transform="translate(135.0679,144.5)" />
  <path
     d="m 396.8519,43.472 c 36.105,-17.565 124.974,-18.859 168.859,-3.885"
     id="path3801"
     inkscape:connector-curvature="0"
     style="fill:none;stroke:#ffc0cb" />
  <polygon
     points="432.073,-108.11 432.073,-108.11 440.033,-101.117 429.45,-101.62 "
     id="polygon3803"
     style="fill:#ffc0cb;stroke:#ffc0cb"
     transform="translate(135.0679,144.5)" />
  <path
     d="M 877.80733,109.0045 95.628433,111.34425"
     id="path3808"
     inkscape:connector-curvature="0"
     style="fill:none;stroke:#ff0000"
     sodipodi:nodetypes="cc" />
  <polygon
     points="95.6119,-29.0028 86.2688,-33.9984 96.6879,-35.9196 95.6119,-29.0028 "
     id="polygon3810"
     style="fill:#ff0000;stroke:#ff0000"
     transform="matrix(0.98736401,-0.15846862,0.15846862,0.98736401,12.411431,158.38666)" />
  <path
     d="M 805.1523,67.52375 869.7128,94.2692"
     id="path3815"
     inkscape:connector-curvature="0"
     style="fill:none;stroke:#ff0000"
     sodipodi:nodetypes="cc" />
  <polygon
     points="734.397,-86.5001 734.397,-86.5001 744.397,-83 734.397,-79.5001 "
     id="polygon3817"
     style="fill:#ff0000;stroke:#ff0000"
     transform="matrix(0.91257635,0.40890636,-0.40890636,0.91257635,164.56775,-131.23761)" />
</svg>
