<?xml version="1.0" encoding="UTF-8" standalone="no"?>
<!-- Generated by graphviz version 2.36.0 (20140111.2315)
 -->

<!-- Title: g Pages: 1 -->

<svg
   xmlns:dc="http://purl.org/dc/elements/1.1/"
   xmlns:cc="http://creativecommons.org/ns#"
   xmlns:rdf="http://www.w3.org/1999/02/22-rdf-syntax-ns#"
   xmlns:svg="http://www.w3.org/2000/svg"
   xmlns="http://www.w3.org/2000/svg"
   xmlns:sodipodi="http://sodipodi.sourceforge.net/DTD/sodipodi-0.dtd"
   xmlns:inkscape="http://www.inkscape.org/namespaces/inkscape"
   width="986pt"
   height="992pt"
   viewBox="0.00 0.00 986.00 992.00"
   id="svg2"
   version="1.1"
   inkscape:version="0.48.4 r9939"
   sodipodi:docname="legend.svg">
  <metadata
     id="metadata402">
    <rdf:RDF>
      <cc:Work
         rdf:about="">
        <dc:format>image/svg+xml</dc:format>
        <dc:type
           rdf:resource="http://purl.org/dc/dcmitype/StillImage" />
        <dc:title></dc:title>
      </cc:Work>
    </rdf:RDF>
  </metadata>
  <defs
     id="defs400" />
  <sodipodi:namedview
     pagecolor="#ffffff"
     bordercolor="#666666"
     borderopacity="1"
     objecttolerance="10"
     gridtolerance="10"
     guidetolerance="10"
     inkscape:pageopacity="0"
     inkscape:pageshadow="2"
     inkscape:window-width="2495"
     inkscape:window-height="1416"
     id="namedview398"
     showgrid="false"
     inkscape:zoom="0.95830393"
     inkscape:cx="492.07228"
     inkscape:cy="645.81046"
     inkscape:window-x="1665"
     inkscape:window-y="24"
     inkscape:window-maximized="1"
     inkscape:current-layer="svg2" />
  <g
     id="g3766"
     transform="translate(389.23847,-237)">
    <path
       style="fill:none;stroke:#808080"
       inkscape:connector-curvature="0"
       id="path22"
       d="m 78.3795,970 c 42.7335,0 127.1715,0 175.4685,0" />
    <polygon
       transform="translate(4,988)"
       style="fill:#808080;stroke:#808080"
       id="polygon24"
       points="249.865,-21.5001 249.865,-21.5001 259.865,-18 249.865,-14.5001 " />
    <text
       style="font-size:14px;text-anchor:middle;font-family:'Times,serif'"
       id="text31"
       font-size="14.00"
       y="973.70001"
       x="403.39481">Meta Edge (hidden by default)</text>
    <path
       style="fill:none;stroke:#ffc0cb"
       inkscape:connector-curvature="0"
       id="path53"
       d="m 78.3795,891 c 42.7335,0 127.1715,0 175.4685,0" />
    <polygon
       transform="translate(4,988)"
       style="fill:#ffc0cb;stroke:#ffc0cb"
       id="polygon55"
       points="249.865,-100.5 249.865,-100.5 259.865,-97 249.865,-93.5001 " />
    <text
       style="font-size:14px;text-anchor:middle;font-family:'Times,serif'"
       id="text62"
       font-size="14.00"
       y="894.70001"
       x="404.32315">Dynamic Content Source Edge</text>
    <path
       style="fill:none;stroke:#ffc0cb"
       inkscape:connector-curvature="0"
       id="path84"
       d="m 78.3795,812 c 42.7335,0 127.1715,0 175.4685,0" />
    <polygon
       transform="translate(4,988)"
       style="fill:#ffc0cb;stroke:#ffc0cb"
       id="polygon86"
       points="249.865,-179.5 249.865,-179.5 259.865,-176 249.865,-172.5 " />
    <text
       style="font-size:14px;text-anchor:middle;font-family:'Times,serif'"
       id="text93"
       font-size="14.00"
       y="815.70001"
       x="397.39285">Flow Cmd Destination Edge</text>
  </g>
  <g
     id="g3755"
     transform="translate(-73.940126,0)">
    <path
       style="fill:none;stroke:#0000ff"
       inkscape:connector-curvature="0"
       id="path115"
       d="m 78.3795,733 c 42.7335,0 127.1715,0 175.4685,0" />
    <polygon
       transform="translate(4,988)"
       style="fill:#0000ff;stroke:#0000ff"
       id="polygon117"
       points="259.865,-255 249.865,-251.5 249.865,-258.5 249.865,-258.5 " />
    <text
       style="font-size:14px;text-anchor:middle;font-family:'Times,serif'"
       id="text124"
       font-size="14.00"
       y="736.70001"
       x="367.03598">Cmd Target Edge</text>
    <path
       style="fill:none;stroke:#000000"
       inkscape:connector-curvature="0"
       id="path146"
       d="m 78.3795,654 c 42.7335,0 127.1715,0 175.4685,0" />
    <polygon
       transform="translate(4,988)"
       style="fill:#000000;stroke:#000000"
       id="polygon148"
       points="259.865,-334 249.865,-330.5 249.865,-337.5 249.865,-337.5 " />
    <text
       style="font-size:14px;text-anchor:middle;font-family:'Times,serif'"
       id="text155"
       font-size="14.00"
       y="657.70001"
       x="365.05783">Alternative Edge</text>
    <path
       style="fill:none;stroke:#ff0000"
       inkscape:connector-curvature="0"
       id="path177"
       d="m 78.3795,575 c 42.7335,0 127.1715,0 175.4685,0" />
    <polygon
       transform="translate(4,988)"
       style="fill:#ff0000;stroke:#ff0000"
       id="polygon179"
       points="259.865,-413 249.865,-409.5 249.865,-416.5 249.865,-416.5 " />
    <text
       style="font-size:14px;text-anchor:middle;font-family:'Times,serif'"
       id="text186"
       font-size="14.00"
       y="578.70001"
       x="354.55753">Default Edge</text>
  </g>
  <text
     x="51"
     y="499.70001"
     font-size="14.00"
     id="text200"
     style="font-size:14px;text-anchor:middle;font-family:'Times,serif'" />
  <text
     x="291"
     y="499.70001"
     font-size="14.00"
     id="text207"
     style="font-size:14px;text-anchor:middle;font-family:'Times,serif'" />
  <text
     x="605"
     y="499.70001"
     font-size="14.00"
     id="text221"
     style="font-size:14px;text-anchor:middle;font-family:'Times,serif'" />
  <text
     x="51"
     y="420.70001"
     font-size="14.00"
     id="text249"
     style="font-size:14px;text-anchor:middle;font-family:'Times,serif'" />
  <text
     x="51"
     y="341.70001"
     font-size="14.00"
     id="text270"
     style="font-size:14px;text-anchor:middle;font-family:'Times,serif'" />
  <text
     x="291"
     y="341.70001"
     font-size="14.00"
     id="text277"
     style="font-size:14px;text-anchor:middle;font-family:'Times,serif'" />
  <text
     x="605"
     y="341.70001"
     font-size="14.00"
     id="text291"
     style="font-size:14px;text-anchor:middle;font-family:'Times,serif'" />
  <g
     id="g3729"
     transform="translate(444.11797,-315.5)">
    <polygon
       transform="translate(4,988)"
       style="fill:#008000;stroke:#000000"
       id="polygon198"
       points="20,-474 74,-474 74,-510 74,-510 20,-510 " />
    <ellipse
       transform="translate(-164.36282,988)"
       style="fill:#008000;stroke:#000000"
       sodipodi:ry="18"
       sodipodi:rx="27"
       sodipodi:cy="-492"
       sodipodi:cx="287"
       d="m 314,-492 c 0,9.94113 -12.08831,18 -27,18 -14.91169,0 -27,-8.05887 -27,-18 0,-9.94113 12.08831,-18 27,-18 14.91169,0 27,8.05887 27,18 z"
       id="ellipse205"
       ry="18"
       rx="27"
       cy="-492"
       cx="287" />
    <polygon
       transform="translate(-406.72564,988)"
       style="fill:#008000;stroke:#000000"
       id="polygon219"
       points="614.5,-510 587.5,-510 574,-492 587.5,-474 614.5,-474 628,-492 628,-492 " />
    <text
       style="font-size:14px;text-anchor:middle;font-family:'Times,serif'"
       id="text235"
       font-size="14.00"
       y="499.70001"
       x="371.97641">Processed by DM HW</text>
    <polygon
       transform="translate(4,988)"
       style="fill:#ffffff;stroke:#800080;stroke-width:2"
       id="polygon247"
       points="20,-553 74,-553 74,-589 74,-589 20,-589 " />
    <text
       style="font-size:14px;text-anchor:middle;font-family:'Times,serif'"
       id="text256"
       font-size="14.00"
       y="420.70001"
       x="358.5643">Pattern Exit Point</text>
    <polygon
       transform="translate(4,988)"
       style="fill:#ffffff;stroke:#cd6600;stroke-width:2"
       id="polygon268"
       points="20,-632 74,-632 74,-668 74,-668 20,-668 " />
    <ellipse
       transform="translate(-164.36282,988)"
       style="fill:#ffffff;stroke:#cd6600;stroke-width:2"
       sodipodi:ry="18"
       sodipodi:rx="27"
       sodipodi:cy="-650"
       sodipodi:cx="287"
       d="m 314,-650 c 0,9.94113 -12.08831,18 -27,18 -14.91169,0 -27,-8.05887 -27,-18 0,-9.94113 12.08831,-18 27,-18 14.91169,0 27,8.05887 27,18 z"
       id="ellipse275"
       ry="18"
       rx="27"
       cy="-650"
       cx="287" />
    <polygon
       transform="translate(-406.72564,988)"
       style="fill:#ffffff;stroke:#cd6600;stroke-width:2"
       id="polygon289"
       points="587.5,-668 574,-650 587.5,-632 614.5,-632 628,-650 628,-650 614.5,-668 " />
    <text
       style="font-size:14px;text-anchor:middle;font-family:'Times,serif'"
       id="text305"
       font-size="14.00"
       y="341.70001"
       x="362.46078">Pattern Entry Point</text>
  </g>
  <g
     id="g3741">
    <polygon
       transform="translate(4,988)"
       style="fill:none;stroke:#808080;stroke-dasharray:5, 2"
       id="polygon317"
       points="78,-747 78,-747 16,-747 16,-711 78,-711 " />
    <text
       style="font-size:14px;text-anchor:middle;font-family:'Times,serif'"
       id="text319"
       font-size="14.00"
       y="262.70001"
       x="51">           </text>
    <text
       style="font-size:14px;text-anchor:middle;font-family:'Times,serif'"
       id="text326"
       font-size="14.00"
       y="262.70001"
       x="330.92352">Meta Node (hidden by default)</text>
    <polygon
       transform="translate(4,988)"
       style="fill:#ffffff;stroke:#000000"
       id="polygon338"
       points="78,-826 78,-826 16,-826 16,-790 78,-790 " />
    <text
       style="font-size:14px;text-anchor:middle;font-family:'Times,serif'"
       id="text340"
       font-size="14.00"
       y="183.70001"
       x="51">           </text>
    <text
       style="font-size:14px;text-anchor:middle;font-family:'Times,serif'"
       id="text347"
       font-size="14.00"
       y="183.70001"
       x="260.89453">Block</text>
    <polygon
       transform="translate(4,988)"
       style="fill:#ffffff;stroke:#000000"
       id="polygon359"
       points="23.7197,-869 70.2803,-869 93.5606,-887 93.5606,-887 70.2803,-905 23.7197,-905 0.439374,-887 " />
    <text
       style="font-size:14px;text-anchor:middle;font-family:'Times,serif'"
       id="text361"
       font-size="14.00"
       y="104.70001"
       x="51">           </text>
    <text
       style="font-size:14px;text-anchor:middle;font-family:'Times,serif'"
       id="text368"
       font-size="14.00"
       y="104.70001"
       x="273.18195">Command</text>
    <ellipse
       transform="translate(4,988)"
       style="fill:#ffffff;stroke:#000000"
       sodipodi:ry="18"
       sodipodi:rx="40.093899"
       sodipodi:cy="-966"
       sodipodi:cx="47"
       d="m 87.093899,-966 c 0,9.94113 -17.95065,18 -40.093899,18 -22.143249,0 -40.0938988,-8.05887 -40.0938988,-18 0,-9.94113 17.9506498,-18 40.0938988,-18 22.143249,0 40.093899,8.05887 40.093899,18 z"
       id="ellipse380"
       ry="18"
       rx="40.093899"
       cy="-966"
       cx="47" />
    <text
       style="font-size:14px;text-anchor:middle;font-family:'Times,serif'"
       id="text382"
       font-size="14.00"
       y="25.700012"
       x="51">           </text>
    <text
       style="font-size:14px;text-anchor:middle;font-family:'Times,serif'"
       id="text389"
       font-size="14.00"
       y="25.700012"
       x="291">Timing Message</text>
  </g>
</svg>
