<?xml version="1.0" encoding="UTF-8" standalone="no"?>
<!-- Generated by graphviz version 2.36.0 (20140111.2315)
 -->

<!-- Title: g Pages: 1 -->

<svg
   xmlns:dc="http://purl.org/dc/elements/1.1/"
   xmlns:cc="http://creativecommons.org/ns#"
   xmlns:rdf="http://www.w3.org/1999/02/22-rdf-syntax-ns#"
   xmlns:svg="http://www.w3.org/2000/svg"
   xmlns="http://www.w3.org/2000/svg"
   xmlns:sodipodi="http://sodipodi.sourceforge.net/DTD/sodipodi-0.dtd"
   xmlns:inkscape="http://www.inkscape.org/namespaces/inkscape"
   width="1106.5"
   height="361"
   viewBox="0 0 885.2 288.8"
   id="svg2"
   version="1.1"
   inkscape:version="0.48.4 r9939"
   sodipodi:docname="legend1.svg">
  <metadata
     id="metadata402">
    <rdf:RDF>
      <cc:Work
         rdf:about="">
        <dc:format>image/svg+xml</dc:format>
        <dc:type
           rdf:resource="http://purl.org/dc/dcmitype/StillImage" />
        <dc:title></dc:title>
      </cc:Work>
    </rdf:RDF>
  </metadata>
  <defs
     id="defs400" />
  <sodipodi:namedview
     pagecolor="#ffffff"
     bordercolor="#666666"
     borderopacity="1"
     objecttolerance="10"
     gridtolerance="10"
     guidetolerance="10"
     inkscape:pageopacity="0"
     inkscape:pageshadow="2"
     inkscape:window-width="2495"
     inkscape:window-height="1416"
     id="namedview398"
     showgrid="false"
     inkscape:zoom="0.60315125"
     inkscape:cx="1300.2291"
     inkscape:cy="646.30021"
     inkscape:window-x="1665"
     inkscape:window-y="24"
     inkscape:window-maximized="1"
     inkscape:current-layer="svg2" />
  <text
     x="51"
     y="-203.49986"
     font-size="14.00"
     id="text200"
     style="font-size:14px;text-anchor:middle;font-family:'Times,serif'" />
  <text
     x="291"
     y="-203.49986"
     font-size="14.00"
     id="text207"
     style="font-size:14px;text-anchor:middle;font-family:'Times,serif'" />
  <text
     x="605"
     y="-203.49986"
     font-size="14.00"
     id="text221"
     style="font-size:14px;text-anchor:middle;font-family:'Times,serif'" />
  <text
     x="51"
     y="-282.49936"
     font-size="14.00"
     id="text249"
     style="font-size:14px;text-anchor:middle;font-family:'Times,serif'" />
  <text
     x="51"
     y="-361.49927"
     font-size="14.00"
     id="text270"
     style="font-size:14px;text-anchor:middle;font-family:'Times,serif'" />
  <text
     x="291"
     y="-361.49927"
     font-size="14.00"
     id="text277"
     style="font-size:14px;text-anchor:middle;font-family:'Times,serif'" />
  <text
     x="605"
     y="-361.49927"
     font-size="14.00"
     id="text291"
     style="font-size:14px;text-anchor:middle;font-family:'Times,serif'" />
  <g
     id="g3729"
     transform="translate(444.11797,-309.09358)">
    <polygon
       transform="translate(4,988)"
       style="fill:#008000;stroke:#000000"
       id="polygon198"
       points="20,-510 20,-474 74,-474 74,-510 74,-510 " />
    <ellipse
       transform="translate(-164.36282,988)"
       style="fill:#008000;stroke:#000000"
       sodipodi:ry="18"
       sodipodi:rx="27"
       sodipodi:cy="-492"
       sodipodi:cx="287"
       d="m 314,-492 c 0,9.94113 -12.08831,18 -27,18 -14.91169,0 -27,-8.05887 -27,-18 0,-9.94113 12.08831,-18 27,-18 14.91169,0 27,8.05887 27,18 z"
       id="ellipse205"
       ry="18"
       rx="27"
       cy="-492"
       cx="287" />
    <polygon
       transform="translate(-406.72564,988)"
       style="fill:#008000;stroke:#000000"
       id="polygon219"
       points="587.5,-474 614.5,-474 628,-492 628,-492 614.5,-510 587.5,-510 574,-492 " />
    <text
       style="font-size:14px;text-anchor:middle;font-family:'Times,serif'"
       id="text235"
       font-size="14.00"
       y="499.70001"
       x="371.97641">Processed by DM HW</text>
    <polygon
       transform="translate(4,988)"
       style="fill:#ffffff;stroke:#800080;stroke-width:2"
       id="polygon247"
       points="20,-589 20,-553 74,-553 74,-589 74,-589 " />
    <text
       style="font-size:14px;text-anchor:middle;font-family:'Times,serif'"
       id="text256"
       font-size="14.00"
       y="420.70001"
       x="358.5643">Pattern Exit Point</text>
    <polygon
       transform="translate(4,988)"
       style="fill:#ffffff;stroke:#cd6600;stroke-width:2"
       id="polygon268"
       points="20,-668 20,-632 74,-632 74,-668 74,-668 " />
    <ellipse
       transform="translate(-164.36282,988)"
       style="fill:#ffffff;stroke:#cd6600;stroke-width:2"
       sodipodi:ry="18"
       sodipodi:rx="27"
       sodipodi:cy="-650"
       sodipodi:cx="287"
       d="m 314,-650 c 0,9.94113 -12.08831,18 -27,18 -14.91169,0 -27,-8.05887 -27,-18 0,-9.94113 12.08831,-18 27,-18 14.91169,0 27,8.05887 27,18 z"
       id="ellipse275"
       ry="18"
       rx="27"
       cy="-650"
       cx="287" />
    <polygon
       transform="translate(-406.72564,988)"
       style="fill:#ffffff;stroke:#cd6600;stroke-width:2"
       id="polygon289"
       points="614.5,-632 628,-650 628,-650 614.5,-668 587.5,-668 574,-650 587.5,-632 " />
    <text
       style="font-size:14px;text-anchor:middle;font-family:'Times,serif'"
       id="text305"
       font-size="14.00"
       y="341.70001"
       x="362.46078">Pattern Entry Point</text>
  </g>
  <g
     id="g3741"
     transform="translate(0,6.40642)">
    <polygon
       transform="translate(4,988)"
       style="fill:none;stroke:#808080;stroke-dasharray:5, 2"
       id="polygon317"
       points="78,-711 78,-747 78,-747 16,-747 16,-711 " />
    <text
       style="font-size:14px;text-anchor:middle;font-family:'Times,serif'"
       id="text319"
       font-size="14.00"
       y="262.70001"
       x="51">           </text>
    <text
       style="font-size:14px;text-anchor:middle;font-family:'Times,serif'"
       id="text326"
       font-size="14.00"
       y="262.70001"
       x="330.92352">Meta Node (hidden by default)</text>
    <polygon
       transform="translate(4,988)"
       style="fill:#ffffff;stroke:#000000"
       id="polygon338"
       points="78,-790 78,-826 78,-826 16,-826 16,-790 " />
    <text
       style="font-size:14px;text-anchor:middle;font-family:'Times,serif'"
       id="text340"
       font-size="14.00"
       y="183.70001"
       x="51">           </text>
    <text
       style="font-size:14px;text-anchor:middle;font-family:'Times,serif'"
       id="text347"
       font-size="14.00"
       y="183.70001"
       x="260.89453">Block</text>
    <polygon
       transform="translate(4,988)"
       style="fill:#ffffff;stroke:#000000"
       id="polygon359"
       points="93.5606,-887 70.2803,-905 23.7197,-905 0.439374,-887 23.7197,-869 70.2803,-869 93.5606,-887 " />
    <text
       style="font-size:14px;text-anchor:middle;font-family:'Times,serif'"
       id="text361"
       font-size="14.00"
       y="104.70001"
       x="51">           </text>
    <text
       style="font-size:14px;text-anchor:middle;font-family:'Times,serif'"
       id="text368"
       font-size="14.00"
       y="104.70001"
       x="273.18195">Command</text>
    <ellipse
       transform="translate(4,988)"
       style="fill:#ffffff;stroke:#000000"
       sodipodi:ry="18"
       sodipodi:rx="40.093899"
       sodipodi:cy="-966"
       sodipodi:cx="47"
       d="m 87.093899,-966 c 0,9.94113 -17.95065,18 -40.093899,18 -22.143249,0 -40.0938988,-8.05887 -40.0938988,-18 0,-9.94113 17.9506498,-18 40.0938988,-18 22.143249,0 40.093899,8.05887 40.093899,18 z"
       id="ellipse380"
       ry="18"
       rx="40.093899"
       cy="-966"
       cx="47" />
    <text
       style="font-size:14px;text-anchor:middle;font-family:'Times,serif'"
       id="text382"
       font-size="14.00"
       y="25.700012"
       x="51">           </text>
    <text
       style="font-size:14px;text-anchor:middle;font-family:'Times,serif'"
       id="text389"
       font-size="14.00"
       y="25.700012"
       x="291">Timing Message</text>
  </g>
</svg>
